<svg xmlns="http://www.w3.org/2000/svg" version="1.1" xmlns:xlink="http://www.w3.org/1999/xlink"
    xmlns:svgjs="http://svgjs.dev/svgjs" width="128" height="128" viewBox="0 0 128 128">
    <g transform="matrix(0.8046875,0,0,0.8046875,12.333870967741944,32.42247362467782)">
        <svg viewBox="0 0 155 95" data-background-color="#deebff"
            preserveAspectRatio="xMidYMid meet" height="78" width="128"
            xmlns="http://www.w3.org/2000/svg" xmlns:xlink="http://www.w3.org/1999/xlink">
            <g id="tight-bounds" transform="matrix(1,0,0,1,0.2499999999999858,0.2947125621007842)">
                <svg viewBox="0 0 154.5 94.41057487579843" height="94.41057487579843" width="154.5">
                    <g>
                        <svg viewBox="0 0 154.5 94.41057487579843" height="94.41057487579843"
                            width="154.5">
                            <g>
                                <svg viewBox="0 0 154.5 94.41057487579843"
                                    height="94.41057487579843" width="154.5">
                                    <g id="textblocktransform">
                                        <svg viewBox="0 0 154.5 94.41057487579843"
                                            height="94.41057487579843" width="154.5" id="textblock">
                                            <g>
                                                <svg viewBox="0 0 154.5 94.41057487579843"
                                                    height="94.41057487579843" width="154.5">
                                                    <g transform="matrix(1,0,0,1,0,0)">
                                                        <svg width="154.5"
                                                            viewBox="-1.85 -24.3 70.44999999999999 43.05"
                                                            height="94.41057487579843"
                                                            data-palette-color="#2f5651">
                                                            <path
                                                                d="M-0.25 0.7L-0.25 0.7Q-1.05 0.7-1.45 0.03-1.85-0.65-1.85-1.45L-1.85-1.45Q-1.85-2.3-1.4-2.95-0.95-3.6 0.05-3.6L0.05-3.6Q1.75-3.6 3.18-5.13 4.6-6.65 5.78-9.05 6.95-11.45 7.9-14.15L7.9-14.15Q8.7-16.45 9.65-18.95 10.6-21.45 11.25-23.85L11.25-23.85Q12.25-24.1 13.6-24.05 14.95-24 15.85-23.6L15.85-23.6 16.15-20.15Q18.85-24.3 23.35-24.3L23.35-24.3Q27.05-24.3 29.2-21.73 31.35-19.15 31.35-14.6L31.35-14.6 31.35-8.75Q31.35-6 32.08-4.8 32.8-3.6 34.4-3.6L34.4-3.6Q35.1-3.6 35.48-3 35.85-2.4 35.85-1.4L35.85-1.4Q35.85-0.6 35.43 0.05 35 0.7 34.05 0.7L34.05 0.7Q26.8 0.7 26.8-8.2L26.8-8.2 26.8-14.6Q26.8-20 22.85-20L22.85-20Q21.1-20 19.65-18.65 18.2-17.3 17.38-15.08 16.55-12.85 16.55-10.1L16.55-10.1 16.55 18.4Q16.05 18.55 15.45 18.65 14.85 18.75 14.3 18.75L14.3 18.75Q13.1 18.75 12 18.4L12 18.4 12-13.35 11.8-12.8Q10.4-8.8 8.83-5.75 7.25-2.7 5.1-1 2.95 0.7-0.25 0.7ZM34.4-3.6L34.4-3.6Q35.45-3.6 36.65-4.25 37.85-4.9 38.9-6.25L38.9-6.25Q40.35-8.25 40.92-10.95 41.5-13.65 41.5-16.2L41.5-16.2 41.5-23.6Q41.95-23.75 42.55-23.85 43.15-23.95 43.8-23.95L43.8-23.95Q44.95-23.95 46.05-23.6L46.05-23.6 46.05-12.05Q46.05-7.7 47.45-5.73 48.85-3.75 51.85-3.75L51.85-3.75Q59-3.75 59-14.2L59-14.2 59-23.6Q59.4-23.75 60-23.85 60.6-23.95 61.25-23.95L61.25-23.95Q62.45-23.95 63.55-23.6L63.55-23.6 63.55-9.2Q63.55-6.55 64.37-5.08 65.2-3.6 67.15-3.6L67.15-3.6Q68-3.6 68.3-2.9 68.6-2.2 68.6-1.4L68.6-1.4Q68.6-0.6 68.17 0.05 67.75 0.7 66.8 0.7L66.8 0.7Q62 0.7 60.3-3.5L60.3-3.5Q58.9-1.45 56.7-0.38 54.5 0.7 51.5 0.7L51.5 0.7Q45.15 0.7 42.8-4.7L42.8-4.7Q42-3.25 41-2.25L41-2.25Q39.65-0.9 37.87-0.1 36.1 0.7 34.05 0.7L34.05 0.7Q33.35 0.7 32.97 0.03 32.6-0.65 32.6-1.45L32.6-1.45Q32.6-2.3 33.02-2.95 33.45-3.6 34.4-3.6Z"
                                                                opacity="1"
                                                                transform="matrix(1,0,0,1,0,0)"
                                                                fill="#517AEE"
                                                                class="wordmark-text-0"
                                                                data-fill-palette-color="primary"
                                                                id="text-0"></path>
                                                        </svg>
                                                    </g>
                                                </svg>
                                            </g>
                                        </svg>
                                    </g>
                                </svg>
                            </g>
                            <g></g>
                        </svg>
                    </g>
                    <defs></defs>
                </svg>
                <rect width="154.5" height="94.41057487579843" fill="none" stroke="none"
                    visibility="hidden"></rect>
            </g>
        </svg>
    </g>
</svg>