<svg width="40" height="40" viewBox="0 0 40 40" fill="none" xmlns="http://www.w3.org/2000/svg">
<path d="M4 4C4 1.79086 5.79086 0 8 0H24L36 12V36C36 38.2091 34.2091 40 32 40H8C5.79086 40 4 38.2091 4 36V4Z" fill="#7F56D9"/>
<path opacity="0.3" d="M24 0L36 12H28C25.7909 12 24 10.2091 24 8V0Z" fill="white"/>
<path d="M24.6666 30H25.3402C25.9876 30 26.3114 30 26.4898 29.865C26.6453 29.7474 26.7415 29.5677 26.7531 29.3731C26.7664 29.1497 26.5869 28.8804 26.2277 28.3417L24.2208 25.3313C23.9241 24.8862 23.7757 24.6636 23.5887 24.586C23.4252 24.5182 23.2414 24.5182 23.0779 24.586C22.8909 24.6636 22.7425 24.8862 22.4458 25.3313L21.9496 26.0755M24.6666 30L19.5436 22.6001C19.249 22.1745 19.1017 21.9618 18.9177 21.887C18.7567 21.8215 18.5765 21.8215 18.4156 21.887C18.2316 21.9618 18.0842 22.1745 17.7896 22.6001L13.8254 28.3262C13.4501 28.8684 13.2624 29.1394 13.2731 29.3649C13.2824 29.5612 13.3779 29.7435 13.534 29.8629C13.7133 30 14.043 30 14.7024 30H24.6666ZM25.9999 20C25.9999 21.1046 25.1045 22 23.9999 22C22.8954 22 22 21.1046 22 20C22 18.8954 22.8954 18 23.9999 18C25.1045 18 25.9999 18.8954 25.9999 20Z" stroke="white" stroke-width="1.5" stroke-linecap="round" stroke-linejoin="round"/>
</svg>
