<svg width="40" height="40" viewBox="0 0 40 40" fill="none" xmlns="http://www.w3.org/2000/svg">
<path d="M4 4C4 1.79086 5.79086 0 8 0H24L36 12V36C36 38.2091 34.2091 40 32 40H8C5.79086 40 4 38.2091 4 36V4Z" fill="#7F56D9"/>
<path opacity="0.3" d="M24 0L36 12H28C25.7909 12 24 10.2091 24 8V0Z" fill="white"/>
<path d="M11.5309 25.4545H12.8988V30.0185C12.8988 30.4403 12.804 30.8068 12.6144 31.1179C12.4269 31.429 12.1659 31.6687 11.8314 31.837C11.4968 32.0053 11.108 32.0895 10.6648 32.0895C10.2706 32.0895 9.91269 32.0202 9.59095 31.8817C9.27135 31.7411 9.0178 31.5281 8.8303 31.2425C8.6428 30.9549 8.55012 30.5937 8.55225 30.1591H9.92973C9.93399 30.3317 9.96915 30.4798 10.0352 30.6033C10.1034 30.7248 10.1961 30.8185 10.3133 30.8846C10.4326 30.9485 10.5732 30.9805 10.7351 30.9805C10.9056 30.9805 11.0494 30.9442 11.1666 30.8718C11.2859 30.7972 11.3765 30.6886 11.4383 30.5458C11.5 30.4031 11.5309 30.2273 11.5309 30.0185V25.4545ZM14.043 32V25.4545H16.6254C17.1218 25.4545 17.5448 25.5494 17.8942 25.739C18.2437 25.9265 18.51 26.1875 18.6932 26.522C18.8786 26.8544 18.9713 27.2379 18.9713 27.6726C18.9713 28.1072 18.8775 28.4908 18.69 28.8232C18.5025 29.1555 18.2309 29.4144 17.875 29.5998C17.5214 29.7852 17.0931 29.8778 16.5902 29.8778H14.9443V28.7688H16.3665C16.6329 28.7688 16.8523 28.723 17.0249 28.6314C17.1996 28.5376 17.3296 28.4087 17.4148 28.2447C17.5022 28.0785 17.5459 27.8878 17.5459 27.6726C17.5459 27.4553 17.5022 27.2656 17.4148 27.1037C17.3296 26.9396 17.1996 26.8129 17.0249 26.7234C16.8502 26.6317 16.6286 26.5859 16.3601 26.5859H15.4269V32H14.043ZM19.8702 32V25.4545H24.2807V26.5955H21.254V28.1552H24.0538V29.2962H21.254V30.859H24.2935V32H19.8702ZM29.7211 27.5703C29.6764 27.4148 29.6135 27.2773 29.5325 27.158C29.4516 27.0366 29.3525 26.9343 29.2353 26.8512C29.1203 26.766 28.9881 26.701 28.839 26.6562C28.692 26.6115 28.529 26.5891 28.35 26.5891C28.0155 26.5891 27.7215 26.6722 27.4679 26.8384C27.2165 27.0046 27.0205 27.2464 26.8798 27.5639C26.7392 27.8793 26.6689 28.2649 26.6689 28.7209C26.6689 29.1768 26.7381 29.5646 26.8766 29.8842C27.0151 30.2038 27.2112 30.4478 27.4647 30.6161C27.7183 30.7823 28.0176 30.8654 28.3628 30.8654C28.676 30.8654 28.9434 30.81 29.165 30.6992C29.3887 30.5863 29.5592 30.4276 29.6764 30.223C29.7957 30.0185 29.8553 29.7766 29.8553 29.4975L30.1366 29.5391H28.4491V28.4972H31.1881V29.3217C31.1881 29.897 31.0666 30.3913 30.8237 30.8047C30.5808 31.2159 30.2463 31.5334 29.8202 31.7571C29.394 31.9787 28.9061 32.0895 28.3564 32.0895C27.7428 32.0895 27.2037 31.9542 26.7392 31.6836C26.2747 31.4109 25.9125 31.0241 25.6526 30.5234C25.3948 30.0206 25.2658 29.424 25.2658 28.7337C25.2658 28.2031 25.3426 27.7301 25.496 27.3146C25.6515 26.897 25.8688 26.5433 26.1479 26.2536C26.4271 25.9638 26.752 25.7433 27.1227 25.592C27.4935 25.4407 27.8951 25.3651 28.3276 25.3651C28.6984 25.3651 29.0435 25.4194 29.3631 25.5281C29.6828 25.6346 29.9661 25.7859 30.2133 25.9819C30.4626 26.1779 30.6661 26.4112 30.8237 26.6818C30.9814 26.9503 31.0826 27.2464 31.1274 27.5703H29.7211Z" fill="white"/>
</svg>
