<svg width="462.59999999999997" height="124.71533309584179" viewBox="0 0 369.89473684210526 99.7223201808515" class="css-1j8o68f"><defs id="SvgjsDefs1558"><linearGradient id="SvgjsLinearGradient1563"><stop id="SvgjsStop1564" stop-color="#ef4136" offset="0"></stop><stop id="SvgjsStop1565" stop-color="#fbb040" offset="1"></stop></linearGradient></defs><g id="SvgjsG1559" featurekey="hmhgWD-0" transform="matrix(1.740753693620383,0,0,1.740753693620383,-119.36174044284473,-133.54215435921793)" fill="#ff5722"><path xmlns="http://www.w3.org/2000/svg" d="M120.999,81.15c0,0-13.696-3.266-25.332,8.557c-8.659,8.799-11.379,15.98-14.901,24.469c2.556,2.516,5.234,5.274,7.79,7.79  c8.432-3.658,15.608-6.577,24.266-15.376C124.459,94.769,120.999,81.15,120.999,81.15z M110.041,99.663  c-2.009,2.041-5.293,2.067-7.334,0.059c-2.041-2.009-2.067-5.292-0.058-7.334c2.009-2.041,5.292-2.067,7.333-0.059  C112.024,94.338,112.05,97.622,110.041,99.663z M81.984,101.857c-10.209-3.346-13.415,7.938-13.415,7.938l9.106,1.654  C79.01,108.219,80.324,105.06,81.984,101.857z M91.003,125.157l-0.055,0.024l1.602,8.821c0,0,10.985-3.252,7.909-13.261  C97.307,122.423,94.19,123.778,91.003,125.157z M82.328,126.963c-1.89,1.921-12.465,5.709-12.465,5.709s3.619-10.633,5.509-12.554  s4.98-1.946,6.9-0.055S84.219,125.042,82.328,126.963z"></path></g><g id="SvgjsG1560" featurekey="1RRcwp-0" transform="matrix(3.0015682301925146,0,0,3.0015682301925146,108.09796144387566,14.031655068863222)" fill="url(#SvgjsLinearGradient1563)"><path d="M3.96 20 l-2.66 0 l0 -14.24 l9.36 0 l0 2.62 l-6.7 0 l0 2.1 l3.7 0 l0 2.64 l-3.7 0 l0 6.88 z M22.96 20 l-2.88 0 l-1.46 -3.84 l-4.72 0 l-1.48 3.84 l-2.86 0 l5.48 -14.24 l2.42 0 z M14.940000000000001 13.52 l2.64 0 l-1.32 -3.46 z M29.98 20.12 c-0.46 0 -0.94 -0.06 -1.44 -0.16 c-1.48 -0.3 -2.92 -1.02 -4.18 -2.12 l-0.38 -0.34 l1.76 -2 l0.38 0.34 c0.92 0.8 1.94 1.34 2.94 1.54 l0.02 0 c0.3 0.06 0.6 0.1 0.9 0.1 c0.5 0 0.96 -0.1 1.34 -0.28 c0.48 -0.2 1.04 -0.64 1.04 -1.46 c0 -0.44 -0.22 -0.78 -0.68 -1.06 c-0.56 -0.34 -1.32 -0.52 -1.86 -0.62 c-0.24 -0.04 -2.28 -0.46 -3.22 -0.98 c-0.62 -0.38 -1.1 -0.86 -1.44 -1.42 c-0.34 -0.58 -0.5 -1.22 -0.5 -1.92 c0 -0.76 0.24 -1.52 0.7 -2.22 c0.44 -0.58 1.04 -1.06 1.76 -1.4 s1.52 -0.52 2.38 -0.52 c0.34 0 0.7 0.04 1.06 0.08 c1.32 0.24 2.62 0.84 3.76 1.8 l0.38 0.32 l-1.7 2.06 l-0.38 -0.32 c-1.3 -1.06 -2.42 -1.3 -3.14 -1.3 c-0.46 0 -0.88 0.1 -1.24 0.26 c-0.56 0.26 -0.92 0.74 -0.92 1.22 c0 0.44 0.16 0.72 0.54 0.98 s0.96 0.46 1.88 0.66 c0.12 0.02 0.28 0.06 0.44 0.1 c0.84 0.16 1.96 0.4 2.74 0.86 c0.68 0.36 1.2 0.86 1.56 1.44 s0.54 1.26 0.54 1.98 c0 0.9 -0.24 1.7 -0.72 2.38 c-0.42 0.58 -1.04 1.08 -1.86 1.48 c-0.7 0.36 -1.48 0.52 -2.46 0.52 z M42.58 20 l-2.68 0 l0 -11.6 l-3.5 0 l0 -2.64 l9.68 0 l0 2.64 l-3.5 0 l0 11.6 z M50.78 20 l-2.66 0 l0 -14.24 l5.1 0 c0.98 0 1.9 0.38 2.6 1.08 c0.68 0.7 1.08 1.6 1.08 2.58 c0 2.02 -1.66 3.64 -3.68 3.64 l-2.44 0 l0 6.94 z M50.78 10.44 l2.44 0 c0.56 0 1 -0.46 1 -1.02 s-0.46 -1.04 -1 -1.04 l-2.44 0 l0 2.06 z M65.7 20.2 c-4.1 0 -7.44 -3.32 -7.44 -7.42 c0 -4.12 3.34 -7.46 7.44 -7.46 c4.12 0 7.46 3.34 7.46 7.46 c0 4.1 -3.34 7.42 -7.46 7.42 z M65.7 7.98 c-2.62 0 -4.76 2.14 -4.76 4.8 c0 2.64 2.14 4.78 4.76 4.78 s4.76 -2.14 4.76 -4.78 c0 -2.66 -2.14 -4.8 -4.76 -4.8 z M79.92 20 l-4.78 0 l0 -14.24 l4.78 0 c4.02 0 7.3 3.2 7.3 7.12 s-3.28 7.12 -7.3 7.12 z M77.8 17.38 l2.12 0 c2.56 0 4.64 -2.02 4.64 -4.5 s-2.08 -4.5 -4.64 -4.5 l-2.12 0 l0 9 z"></path></g></svg>