<svg width="20" height="20" viewBox="0 0 20 20" fill="none" xmlns="http://www.w3.org/2000/svg">
<path d="M7.11647 15.3238C7.27506 15.2301 7.44838 15.1403 7.63643 15.0542C7.4774 15.2909 7.30729 15.52 7.12666 15.7407C6.80948 16.1224 6.56252 16.3252 6.40733 16.3886L6.36768 16.4022C6.35646 16.3865 6.34661 16.3698 6.33823 16.3524C6.27479 16.2278 6.27705 16.1077 6.38354 15.9446C6.50362 15.7577 6.7449 15.5436 7.11647 15.3238ZM9.89752 13.458C9.7631 13.486 9.62867 13.5154 9.49424 13.5464C9.69399 13.1552 9.88286 12.7586 10.0606 12.357C10.2397 12.6888 10.4324 13.0131 10.6384 13.3289C10.3922 13.3652 10.1452 13.4082 9.89752 13.458ZM12.7579 14.5218C12.5823 14.3794 12.4175 14.2242 12.2651 14.0573C12.5249 14.0626 12.756 14.083 12.9584 14.1185C13.3175 14.183 13.4863 14.285 13.5452 14.3552C13.5633 14.3751 13.5737 14.4008 13.5746 14.4277C13.5705 14.5076 13.5472 14.5853 13.5067 14.6543C13.4841 14.7097 13.4474 14.7581 13.4002 14.7948C13.3771 14.8097 13.3493 14.8158 13.322 14.8118C13.2201 14.8084 13.0297 14.737 12.7579 14.5218ZM10.2374 9.14543C10.1921 9.42184 10.115 9.73902 10.0108 10.0845C9.97254 9.95512 9.93891 9.82439 9.90998 9.69258C9.82389 9.2927 9.81143 8.97891 9.85787 8.76141C9.90092 8.5609 9.98248 8.48047 10.0799 8.44082C10.1321 8.41752 10.1874 8.40224 10.2442 8.39551C10.2589 8.42949 10.2759 8.49973 10.2804 8.6198C10.2865 8.75801 10.2721 8.93359 10.2374 9.14656V9.14543Z" fill="#DD2025"/>
<path fill-rule="evenodd" clip-rule="evenodd" d="M5.39062 1.25H11.3866C11.687 1.25006 11.9751 1.36946 12.1875 1.58191L16.3868 5.78125C16.5993 5.99364 16.7187 6.28173 16.7188 6.58215V17.1094C16.7188 17.7103 16.4801 18.2865 16.0552 18.7114C15.6303 19.1363 15.054 19.375 14.4531 19.375H5.39062C4.78974 19.375 4.21347 19.1363 3.78859 18.7114C3.3637 18.2865 3.125 17.7103 3.125 17.1094V3.51562C3.125 2.91474 3.3637 2.33847 3.78859 1.91359C4.21347 1.4887 4.78974 1.25 5.39062 1.25ZM11.6211 2.94922V5.21484C11.6211 5.51528 11.7404 5.80342 11.9529 6.01586C12.1653 6.22831 12.4535 6.34766 12.7539 6.34766H15.0195L11.6211 2.94922ZM5.57754 16.7333C5.67949 16.9372 5.83809 17.1218 6.07371 17.2079C6.3082 17.2929 6.54043 17.2532 6.73074 17.1739C7.09098 17.0267 7.45008 16.68 7.77973 16.2836C8.15695 15.8293 8.55344 15.2334 8.93633 14.573C9.67559 14.3542 10.4325 14.2003 11.1986 14.1131C11.5384 14.547 11.8896 14.9208 12.2294 15.1893C12.5466 15.4385 12.9125 15.6458 13.2875 15.6616C13.4917 15.6714 13.6938 15.6168 13.8652 15.5053C14.0408 15.3909 14.1711 15.2255 14.2662 15.0341C14.3682 14.829 14.4305 14.6149 14.4225 14.3963C14.4157 14.1807 14.3358 13.9738 14.196 13.8095C13.94 13.5036 13.5208 13.3564 13.1085 13.2827C12.6082 13.2057 12.1008 13.1867 11.5962 13.2261C11.1703 12.6236 10.7988 11.9844 10.486 11.3162C10.7692 10.5685 10.9811 9.86164 11.0751 9.28391C11.1159 9.03695 11.1374 8.80133 11.1295 8.58836C11.128 8.37697 11.0788 8.16864 10.9856 7.97891C10.9318 7.87421 10.8555 7.78278 10.762 7.71127C10.6685 7.63975 10.5603 7.58993 10.4452 7.56543C10.2164 7.51672 9.98078 7.56543 9.76441 7.65266C9.33734 7.82258 9.11191 8.18508 9.02695 8.58496C8.94426 8.97012 8.98164 9.41871 9.07906 9.87184C9.17875 10.3318 9.34867 10.8325 9.56617 11.3388C9.21746 12.2037 8.81568 13.0462 8.36313 13.8616C7.77943 14.0456 7.21672 14.2905 6.6843 14.5923C6.26516 14.8415 5.89246 15.136 5.66816 15.4838C5.43027 15.8531 5.35664 16.2926 5.57754 16.7333Z" fill="#DD2025"/>
</svg>
