<svg width="21" height="20" viewBox="0 0 21 20" fill="none" xmlns="http://www.w3.org/2000/svg">
<path d="M2.29497 3.98005C1.75 5.04961 1.75 6.44974 1.75 9.25V10.75C1.75 13.5503 1.75 14.9504 2.29497 16.02C2.77433 16.9608 3.53924 17.7257 4.48005 18.205C5.54961 18.75 6.94974 18.75 9.75 18.75H11.25C14.0503 18.75 15.4504 18.75 16.52 18.205C17.4608 17.7257 18.2257 16.9608 18.705 16.02C19.25 14.9504 19.25 13.5503 19.25 10.75V9.25C19.25 6.44974 19.25 5.04961 18.705 3.98005C18.2257 3.03924 17.4608 2.27433 16.52 1.79497C15.4504 1.25 14.0503 1.25 11.25 1.25H9.75C6.94974 1.25 5.54961 1.25 4.48005 1.79497C3.53924 2.27433 2.77433 3.03924 2.29497 3.98005Z" fill="url(#paint0_linear_28043_13882)"/>
<path d="M1.91576 5.1744C1.75 6.11645 1.75 7.36643 1.75 9.24967V10.7497C1.75 13.5499 1.75 14.9501 2.29497 16.0196C2.77433 16.9604 3.53924 17.7253 4.48005 18.2047C5.54961 18.7497 6.94974 18.7497 9.75 18.7497H11.25C14.0503 18.7497 15.4504 18.7497 16.52 18.2047C17.4608 17.7253 18.2257 16.9604 18.705 16.0196C19.25 14.9501 19.25 13.5499 19.25 10.7497V9.24967C19.25 6.4494 19.25 5.04927 18.705 3.97971C18.2423 3.07164 17.5136 2.32744 16.6175 1.8457L1.91576 5.1744Z" fill="url(#paint1_linear_28043_13882)"/>
<path d="M19.0694 14.9092C18.9891 15.3315 18.8731 15.6916 18.7055 16.0203C18.2262 16.9612 17.4613 17.7261 16.5205 18.2054C15.4829 18.7341 14.1343 18.7499 11.4982 18.7504H10.5371V16.7734L19.0694 14.9092Z" fill="url(#paint2_linear_28043_13882)"/>
<path d="M11.2499 1.25H9.74986C9.20507 1.25 8.71328 1.25 8.2666 1.25401V3.73157L16.6157 1.84516C16.584 1.8281 16.552 1.81136 16.5198 1.79497C15.926 1.49243 15.2304 1.35784 14.2499 1.29797C13.4642 1.25 12.4955 1.25 11.2499 1.25Z" fill="url(#paint3_linear_28043_13882)"/>
<path d="M19.2501 10.858C19.25 12.7365 19.2467 13.9747 19.0691 14.9084L16.1016 15.5568V11.1346L19.2501 10.4023V10.858Z" fill="url(#paint4_linear_28043_13882)"/>
<path fill-rule="evenodd" clip-rule="evenodd" d="M9.83764 8.36143C9.83764 7.95976 10.166 7.80527 10.71 7.80527C11.4899 7.80527 12.4751 8.04215 13.2551 8.46442V6.04408C12.4033 5.7042 11.5618 5.57031 10.71 5.57031C8.62666 5.57031 7.24121 6.66204 7.24121 8.48502C7.24121 11.3276 11.141 10.8745 11.141 12.1001C11.141 12.5739 10.7305 12.7283 10.1558 12.7283C9.30399 12.7283 8.21616 12.3782 7.3541 11.9044V14.3556C8.30852 14.7676 9.2732 14.9427 10.1558 14.9427C12.2904 14.9427 13.7579 13.8819 13.7579 12.0383C13.7477 8.96909 9.83764 9.51495 9.83764 8.36143Z" fill="white"/>
<defs>
<linearGradient id="paint0_linear_28043_13882" x1="1.75" y1="1.25" x2="7.49791" y2="5.31381" gradientUnits="userSpaceOnUse">
<stop stop-color="#392993"/>
<stop offset="1" stop-color="#4B47B9"/>
</linearGradient>
<linearGradient id="paint1_linear_28043_13882" x1="2.409" y1="5.35871" x2="15.0979" y2="15.8253" gradientUnits="userSpaceOnUse">
<stop stop-color="#594BB9"/>
<stop offset="1" stop-color="#60A8F2"/>
</linearGradient>
<linearGradient id="paint2_linear_28043_13882" x1="10.5371" y1="16.8466" x2="19.2505" y2="18.7504" gradientUnits="userSpaceOnUse">
<stop stop-color="#61A2EF"/>
<stop offset="1" stop-color="#58E6FD"/>
</linearGradient>
<linearGradient id="paint3_linear_28043_13882" x1="8.2666" y1="2.49477" x2="19.2499" y2="1.25" gradientUnits="userSpaceOnUse">
<stop stop-color="#534EBE"/>
<stop offset="1" stop-color="#6875E2"/>
</linearGradient>
<linearGradient id="paint4_linear_28043_13882" x1="16.1016" y1="11.1712" x2="19.2501" y2="14.9421" gradientUnits="userSpaceOnUse">
<stop stop-color="#71A5F3"/>
<stop offset="1" stop-color="#6CC3FA"/>
</linearGradient>
</defs>
</svg>
