<svg xmlns="http://www.w3.org/2000/svg" version="1.1" xmlns:xlink="http://www.w3.org/1999/xlink" xmlns:svgjs="http://svgjs.dev/svgjs" width="452.4" height="140.8187741881231"><svg width="452.4" height="140.8187741881231" viewBox="0 0 350 108.94467499081142" class="looka-1j8o68f"><defs id="SvgjsDefs1005"></defs><g id="SvgjsG1004" featurekey="X3o6dM-0" transform="matrix(6.128166486629601,0,0,6.128166486629601,-3.064081782246054,-45.34844135189902)" fill="#006dff"><path d="M4.64 9.76 q-1.02 0.36 -1.66 0.58 t-1.03 0.35 t-0.6 0.18 t-0.37 0.05 q-0.48 0 -0.48 -0.24 q0 -0.14 0.14 -0.32 t0.31 -0.34 t0.33 -0.28 t0.22 -0.14 q0.82 -0.56 1.8 -0.97 t2.03 -0.68 t2.14 -0.41 t2.15 -0.14 q0.64 0 1.34 0.06 t1.34 0.14 q0.54 0.08 1.21 0.22 t1.37 0.36 t1.36 0.53 t1.18 0.73 t0.83 0.97 t0.31 1.23 q0 0.98 -0.53 1.73 t-1.37 1.29 t-1.89 0.92 t-2.1 0.63 t-2 0.4 t-1.57 0.23 q-0.02 0.62 -0.09 1.46 t-0.19 1.6 t-0.3 1.29 t-0.44 0.53 q-0.16 0 -0.26 -0.32 q-0.28 -0.72 -0.33 -1.76 t-0.05 -2.58 q-0.88 0.1 -1.73 0.18 t-1.69 0.16 q-0.02 -0.02 -0.27 0 t-0.63 0.05 t-0.81 0.05 t-0.8 0 t-0.62 -0.1 t-0.25 -0.24 t0.47 -0.3 t1.1 -0.24 t1.23 -0.16 t0.88 -0.1 q0.76 -0.04 1.54 -0.15 t1.6 -0.23 q0.06 -0.16 0.09 -0.56 t0.07 -0.9 t0.09 -1.03 t0.13 -0.97 t0.21 -0.73 t0.35 -0.29 q0.44 0 0.68 0.24 t0.33 0.62 t0.08 0.84 t-0.07 0.93 t-0.14 0.88 t-0.1 0.67 q0.44 -0.06 1.21 -0.19 t1.65 -0.34 t1.78 -0.51 t1.63 -0.72 t1.19 -0.95 t0.46 -1.21 q0 -0.54 -0.37 -0.95 t-0.97 -0.72 t-1.37 -0.52 t-1.58 -0.34 t-1.6 -0.18 t-1.41 -0.05 q-1.32 0 -2.61 0.21 t-2.55 0.55 z M17.68 15.34 q0 -0.34 0.25 -0.51 t0.55 -0.2 t0.54 0.08 t0.22 0.33 q-0.04 0.64 -0.12 1.34 t-0.16 1.3 t-0.1 1.01 t0.1 0.45 q0.1 0.04 0.22 -0.15 t0.24 -0.51 t0.25 -0.72 t0.25 -0.8 t0.22 -0.76 t0.18 -0.58 q0.02 -0.3 0.27 -0.37 t0.53 0.01 t0.49 0.24 t0.19 0.34 q-0.08 0.36 -0.15 0.9 t-0.09 1.04 t0.03 0.86 t0.23 0.36 q0.12 0 0.29 -0.31 t0.33 -0.73 t0.3 -0.84 t0.18 -0.64 q0.04 -0.2 0.18 -0.27 t0.28 -0.04 t0.23 0.15 t0.03 0.3 q-0.04 0.16 -0.17 0.6 t-0.34 0.96 t-0.5 1 t-0.65 0.7 q-0.22 0.14 -0.49 0.12 t-0.52 -0.15 t-0.44 -0.38 t-0.25 -0.59 q-0.06 -0.3 -0.06 -0.68 q-0.18 0.56 -0.42 1.06 t-0.56 0.82 q-0.2 0.22 -0.47 0.25 t-0.52 -0.09 t-0.44 -0.35 t-0.25 -0.53 t-0.06 -0.76 t0.03 -1 t0.08 -1.12 t0.07 -1.14 z M23.540000000000003 16.740000000000002 q-0.04 0.16 -0.17 0.23 t-0.27 0.04 t-0.22 -0.14 t0 -0.29 l0.12 -0.34 q-0.18 -0.18 -0.2 -0.42 t0.08 -0.45 t0.29 -0.36 t0.43 -0.15 q0.42 0 0.46 0.31 t-0.12 0.69 q0.12 0.06 0.39 0.02 t0.51 -0.05 t0.4 0.09 t0.08 0.46 t-0.17 0.86 t-0.13 0.95 t0 0.77 t0.22 0.32 q0.12 0 0.31 -0.35 t0.39 -0.81 t0.36 -0.93 t0.2 -0.71 q0.04 -0.2 0.17 -0.28 t0.27 -0.07 t0.23 0.12 t0.07 0.31 q-0.02 0.1 -0.1 0.43 t-0.22 0.74 t-0.34 0.86 t-0.48 0.83 t-0.62 0.61 t-0.76 0.21 q-0.48 -0.02 -0.7 -0.43 t-0.28 -0.98 t0.03 -1.21 t0.25 -1.12 q-0.1 0.02 -0.2 0.02 l-0.2 0 q-0.06 0.1 -0.08 0.22 z M29.82 16.5 q-0.16 0.22 -0.4 0.36 t-0.52 0.23 t-0.57 0.13 t-0.51 0.06 q-0.06 0.42 -0.07 0.82 t0.04 0.72 t0.16 0.54 t0.31 0.28 q0.26 0.08 0.56 -0.09 t0.58 -0.47 t0.54 -0.7 t0.46 -0.77 t0.34 -0.68 t0.18 -0.45 q0.06 -0.18 0.19 -0.24 t0.25 -0.04 t0.2 0.13 t0.04 0.29 q-0.04 0.12 -0.14 0.47 t-0.29 0.79 t-0.46 0.91 t-0.65 0.86 t-0.87 0.65 t-1.09 0.26 q-0.72 0 -1.12 -0.5 t-0.54 -1.26 t-0.05 -1.63 t0.36 -1.63 t0.68 -1.26 t0.91 -0.5 q0.48 0 0.85 0.33 t0.57 0.77 t0.23 0.9 t-0.17 0.72 z M28.58 14.719999999999999 q-0.14 0.06 -0.3 0.51 t-0.3 1.09 q0.22 0 0.44 -0.05 t0.32 -0.21 q0.08 -0.12 0.1 -0.35 t-0.01 -0.47 t-0.1 -0.4 t-0.15 -0.12 z M34.7 13.620000000000001 q0 -1.22 0.16 -2.52 t0.8 -2.44 q0.04 -0.06 0.14 -0.24 t0.24 -0.36 t0.3 -0.32 t0.3 -0.14 q0.22 0 0.29 0.28 t0.07 0.48 t-0.04 0.42 l-0.12 0.66 q-0.22 1.06 -0.33 2.19 t-0.11 2.21 q0 0.88 0.13 1.91 t0.55 1.92 t1.2 1.49 t2.08 0.6 q1.24 0 2.27 -0.5 t1.81 -1.32 t1.27 -1.89 t0.67 -2.21 q0.06 -0.16 0.11 -0.61 t0.09 -1 t0.07 -1.11 t0.03 -0.92 q0.04 -1.08 0.1 -1.74 t0.44 -0.66 q0.28 0 0.52 0.18 t0.41 0.45 t0.25 0.59 t0.04 0.6 q-0.08 0.64 -0.09 1.67 t0 2.2 t0.01 2.37 t-0.1 2.16 t-0.32 1.57 t-0.62 0.61 q-0.22 0 -0.32 -0.5 t-0.15 -1.14 t-0.07 -1.23 t-0.08 -0.75 q-0.44 1.04 -1.11 1.89 t-1.51 1.46 t-1.85 0.94 t-2.15 0.33 q-1.56 0 -2.59 -0.67 t-1.65 -1.75 t-0.88 -2.43 t-0.26 -2.73 z  M52.980000000000004 9.92 q-0.52 0.04 -1.06 0.08 t-1.14 0.04 q-0.34 0 -0.48 -0.16 t-0.09 -0.35 t0.29 -0.36 t0.68 -0.19 q0.6 -0.08 1.19 -0.24 t1.19 -0.32 t1.21 -0.28 t1.21 -0.12 q0.22 0 0.49 0.07 t0.5 0.22 t0.38 0.37 t0.15 0.5 q0 0.16 -0.17 0.25 t-0.56 0.14 t-1 0.1 t-1.49 0.15 q0.24 0.28 0.35 0.72 t0.16 0.92 t0.04 0.94 t-0.01 0.78 q0 0.74 0.01 1.51 t-0.06 1.55 t-0.24 1.54 t-0.53 1.46 q0.9 -0.12 1.43 -0.18 t0.84 -0.1 t0.45 -0.05 t0.24 -0.01 q0.32 0 0.52 0.11 t0.1 0.37 q-0.06 0.16 -0.62 0.4 t-1.36 0.47 t-1.71 0.38 t-1.69 0.16 t-1.29 -0.19 t-0.51 -0.7 q0 -0.12 0.14 -0.2 t0.46 -0.13 t0.84 -0.1 t1.3 -0.15 q-0.04 -1.1 -0.05 -2.2 t-0.03 -2.24 t-0.03 -2.37 t-0.05 -2.59 z"></path></g><g id="SvgjsG1003" featurekey="RFbU7s-0" transform="matrix(0.7527286808477124,0,0,0.7527286808477124,34.09672572655435,93.66428334388927)" fill="#ff0007"><path d="M10.28 20 l-4.6 -6.1 l-1.78 2 l0 4.1 l-2.7 0 l0 -14 l2.7 0 l0 6.4 l5.56 -6.4 l3.24 0 l-5.38 6.06 l6 7.94 l-3.04 0 z M31.48 17.58 l6.1 0 l0 2.42 l-6.5 0 l-2.22 0 l0 -14 l2.62 0 l5.92 0 l0 2.42 l-5.92 0 l0 3.36 l4.5 0 l0 2.36 l-4.5 0 l0 3.44 z M56.14 17.58 l6.1 0 l0 2.42 l-6.5 0 l-2.22 0 l0 -14 l2.62 0 l5.92 0 l0 2.42 l-5.92 0 l0 3.36 l4.5 0 l0 2.36 l-4.5 0 l0 3.44 z M83 6 c3.14 0 5.12 1.92 5.12 4.7 s-1.98 4.54 -5.12 4.54 l-2.2 0 l0 4.76 l-2.62 0 l0 -14 l4.82 0 z M82.86 12.98 c1.58 0 2.64 -0.68 2.64 -2.28 c0 -1.58 -1.06 -2.28 -2.64 -2.28 l-2.06 0 l0 4.56 l2.06 0 z M131.74 6 l2.62 0 l0 8.92 c0 3.4 -2.42 5.38 -5.32 5.38 c-2.92 0 -5.34 -1.98 -5.34 -5.38 l0 -8.92 l2.62 0 l0 8.92 c0 2.2 1.4 2.92 2.72 2.92 s2.7 -0.72 2.7 -2.92 l0 -8.92 z M153.22 6 l0 14 l-2.62 0 l0 -14 l2.62 0 z M193.82 5.76 c2.38 0 3.96 1.52 4.66 2.9 l-1.94 1.14 c-0.74 -1.1 -1.54 -1.72 -2.72 -1.72 c-1.12 0 -1.92 0.66 -1.92 1.56 c0 0.86 0.52 1.36 1.72 1.8 l0.96 0.36 c2.98 1.06 4.28 2.36 4.28 4.36 c0 2.72 -2.58 4.14 -4.96 4.14 c-2.5 0 -4.46 -1.48 -5.1 -3.44 l2.02 -1.06 c0.5 1.12 1.44 2.12 3.08 2.12 c1.24 0 2.24 -0.6 2.24 -1.72 c0 -1.14 -0.72 -1.64 -2.28 -2.22 l-0.9 -0.32 c-2.08 -0.76 -3.66 -1.8 -3.66 -4.12 c0 -2.2 2.02 -3.78 4.52 -3.78 z M217.22 6 l0 14 l-2.62 0 l0 -14 l2.62 0 z M248.35999999999999 6 l0 14 l-2.7 0 l0 -8.12 l-3.64 8.12 l-2.24 0 l-3.62 -8.08 l0 8.08 l-2.7 0 l0 -14 l2.6 0 l4.86 10.48 l4.84 -10.48 l2.6 0 z M269.41999999999996 6 c3.14 0 5.12 1.92 5.12 4.7 s-1.98 4.54 -5.12 4.54 l-2.2 0 l0 4.76 l-2.62 0 l0 -14 l4.82 0 z M269.28 12.98 c1.58 0 2.64 -0.68 2.64 -2.28 c0 -1.58 -1.06 -2.28 -2.64 -2.28 l-2.06 0 l0 4.56 l2.06 0 z M292.9 17.58 l5.68 0 l0 2.42 l-8.3 0 l0 -14 l2.62 0 l0 11.58 z M317.03999999999996 17.58 l6.1 0 l0 2.42 l-6.5 0 l-2.22 0 l0 -14 l2.62 0 l5.92 0 l0 2.42 l-5.92 0 l0 3.36 l4.5 0 l0 2.36 l-4.5 0 l0 3.44 z M343.6 5.76 c2.38 0 3.96 1.52 4.66 2.9 l-1.94 1.14 c-0.74 -1.1 -1.54 -1.72 -2.72 -1.72 c-1.12 0 -1.92 0.66 -1.92 1.56 c0 0.86 0.52 1.36 1.72 1.8 l0.96 0.36 c2.98 1.06 4.28 2.36 4.28 4.36 c0 2.72 -2.58 4.14 -4.96 4.14 c-2.5 0 -4.46 -1.48 -5.1 -3.44 l2.02 -1.06 c0.5 1.12 1.44 2.12 3.08 2.12 c1.24 0 2.24 -0.6 2.24 -1.72 c0 -1.14 -0.72 -1.64 -2.28 -2.22 l-0.9 -0.32 c-2.08 -0.76 -3.66 -1.8 -3.66 -4.12 c0 -2.2 2.02 -3.78 4.52 -3.78 z M373.18 6 l0 2.42 l-3.6 0 l0 11.58 l-2.62 0 l0 -11.58 l-3.58 0 l0 -2.42 l9.8 0 z"></path></g></svg><style>@media (prefers-color-scheme: light) { :root { filter: none; } }
@media (prefers-color-scheme: dark) { :root { filter: none; } }
</style></svg>