<svg width="376.55487033290564" height="298.575" viewBox="0 0 350 277.51931586387997" class="looka-1j8o68f"><defs id="SvgjsDefs1919"></defs><g id="SvgjsG1920" featurekey="X3o6dM-0" transform="matrix(19.379843487587767,0,0,19.379843487587767,-9.689917123279136,-143.41087137944385)" fill="#006dff"><path d="M4.64 9.76 q-1.02 0.36 -1.66 0.58 t-1.03 0.35 t-0.6 0.18 t-0.37 0.05 q-0.48 0 -0.48 -0.24 q0 -0.14 0.14 -0.32 t0.31 -0.34 t0.33 -0.28 t0.22 -0.14 q0.82 -0.56 1.8 -0.97 t2.03 -0.68 t2.14 -0.41 t2.15 -0.14 q0.64 0 1.34 0.06 t1.34 0.14 q0.54 0.08 1.21 0.22 t1.37 0.36 t1.36 0.53 t1.18 0.73 t0.83 0.97 t0.31 1.23 q0 0.98 -0.53 1.73 t-1.37 1.29 t-1.89 0.92 t-2.1 0.63 t-2 0.4 t-1.57 0.23 q-0.02 0.62 -0.09 1.46 t-0.19 1.6 t-0.3 1.29 t-0.44 0.53 q-0.16 0 -0.26 -0.32 q-0.28 -0.72 -0.33 -1.76 t-0.05 -2.58 q-0.88 0.1 -1.73 0.18 t-1.69 0.16 q-0.02 -0.02 -0.27 0 t-0.63 0.05 t-0.81 0.05 t-0.8 0 t-0.62 -0.1 t-0.25 -0.24 t0.47 -0.3 t1.1 -0.24 t1.23 -0.16 t0.88 -0.1 q0.76 -0.04 1.54 -0.15 t1.6 -0.23 q0.06 -0.16 0.09 -0.56 t0.07 -0.9 t0.09 -1.03 t0.13 -0.97 t0.21 -0.73 t0.35 -0.29 q0.44 0 0.68 0.24 t0.33 0.62 t0.08 0.84 t-0.07 0.93 t-0.14 0.88 t-0.1 0.67 q0.44 -0.06 1.21 -0.19 t1.65 -0.34 t1.78 -0.51 t1.63 -0.72 t1.19 -0.95 t0.46 -1.21 q0 -0.54 -0.37 -0.95 t-0.97 -0.72 t-1.37 -0.52 t-1.58 -0.34 t-1.6 -0.18 t-1.41 -0.05 q-1.32 0 -2.61 0.21 t-2.55 0.55 z"></path></g></svg>
