<svg width="38" height="38" viewBox="0 0 38 38" fill="none" xmlns="http://www.w3.org/2000/svg">
<g filter="url(#filter0_dd_27454_20525)">
<g clip-path="url(#clip0_27454_20525)">
<path d="M3 14.8C3 10.3196 3 8.07937 3.87195 6.36808C4.63893 4.86278 5.86278 3.63893 7.36808 2.87195C9.07937 2 11.3196 2 15.8 2H22.2C26.6804 2 28.9206 2 30.6319 2.87195C32.1372 3.63893 33.3611 4.86278 34.1281 6.36808C35 8.07937 35 10.3196 35 14.8V21.2C35 25.6804 35 27.9206 34.1281 29.6319C33.3611 31.1372 32.1372 32.3611 30.6319 33.1281C28.9206 34 26.6804 34 22.2 34H15.8C11.3196 34 9.07937 34 7.36808 33.1281C5.86278 32.3611 4.63893 31.1372 3.87195 29.6319C3 27.9206 3 25.6804 3 21.2V14.8Z" fill="white"/>
<path d="M3 14.8C3 10.3196 3 8.07937 3.87195 6.36808C4.63893 4.86278 5.86278 3.63893 7.36808 2.87195C9.07937 2 11.3196 2 15.8 2H22.2C26.6804 2 28.9206 2 30.6319 2.87195C32.1372 3.63893 33.3611 4.86278 34.1281 6.36808C35 8.07937 35 10.3196 35 14.8V21.2C35 25.6804 35 27.9206 34.1281 29.6319C33.3611 31.1372 32.1372 32.3611 30.6319 33.1281C28.9206 34 26.6804 34 22.2 34H15.8C11.3196 34 9.07937 34 7.36808 33.1281C5.86278 32.3611 4.63893 31.1372 3.87195 29.6319C3 27.9206 3 25.6804 3 21.2V14.8Z" fill="url(#paint0_linear_27454_20525)"/>
<path fill-rule="evenodd" clip-rule="evenodd" d="M18.9998 4.03882C11.2892 4.03882 5.03861 10.2894 5.03861 18C5.03861 25.7105 11.2892 31.9612 18.9998 31.9612C26.7103 31.9612 32.9609 25.7105 32.9609 18C32.9609 10.2894 26.7103 4.03882 18.9998 4.03882ZM4.96094 18C4.96094 10.2466 11.2463 3.96115 18.9998 3.96115C26.7532 3.96115 33.0386 10.2466 33.0386 18C33.0386 25.7534 26.7532 32.0388 18.9998 32.0388C11.2463 32.0388 4.96094 25.7534 4.96094 18Z" fill="#D0D5DD"/>
<path fill-rule="evenodd" clip-rule="evenodd" d="M19 14.0779C16.8338 14.0779 15.0777 15.834 15.0777 18.0002C15.0777 20.1665 16.8338 21.9225 19 21.9225C21.1662 21.9225 22.9223 20.1665 22.9223 18.0002C22.9223 15.834 21.1662 14.0779 19 14.0779ZM15 18.0002C15 15.7911 16.7909 14.0002 19 14.0002C21.2091 14.0002 23 15.7911 23 18.0002C23 20.2094 21.2091 22.0002 19 22.0002C16.7909 22.0002 15 20.2094 15 18.0002Z" fill="#D0D5DD"/>
<path fill-rule="evenodd" clip-rule="evenodd" d="M18.9995 15.3201C17.5196 15.3201 16.3199 16.5198 16.3199 17.9997C16.3199 19.4796 17.5196 20.6793 18.9995 20.6793C20.4794 20.6793 21.6791 19.4796 21.6791 17.9997C21.6791 16.5198 20.4794 15.3201 18.9995 15.3201ZM16.2422 17.9997C16.2422 16.4769 17.4767 15.2424 18.9995 15.2424C20.5223 15.2424 21.7568 16.4769 21.7568 17.9997C21.7568 19.5225 20.5223 20.757 18.9995 20.757C17.4767 20.757 16.2422 19.5225 16.2422 17.9997Z" fill="#D0D5DD"/>
<path d="M18.9609 2H19.0386V34H18.9609V2Z" fill="#D0D5DD"/>
<path d="M35 17.9609L35 18.0386L3 18.0386L3 17.9609L35 17.9609Z" fill="#D0D5DD"/>
<path d="M29.6016 2H29.6792V34H29.6016V2Z" fill="#D0D5DD"/>
<path d="M13.6406 2H13.7183V34H13.6406V2Z" fill="#D0D5DD"/>
<path d="M24.2812 2H24.3589V34H24.2812V2Z" fill="#D0D5DD"/>
<path d="M8.32031 2H8.39798V34H8.32031V2Z" fill="#D0D5DD"/>
<path d="M35 28.6016L35 28.6792L3 28.6792L3 28.6016L35 28.6016Z" fill="#D0D5DD"/>
<path d="M35 12.6406L35 12.7183L3 12.7183L3 12.6406L35 12.6406Z" fill="#D0D5DD"/>
<path d="M35 23.2812L35 23.3589L3 23.3589L3 23.2812L35 23.2812Z" fill="#D0D5DD"/>
<path d="M35 7.32031L35 7.39798L3 7.39798L3 7.32031L35 7.32031Z" fill="#D0D5DD"/>
</g>
<path d="M3.1 14.8C3.1 12.5581 3.10008 10.8828 3.20866 9.55376C3.31715 8.22593 3.53345 7.25268 3.96105 6.41348C4.71845 4.92699 5.92699 3.71845 7.41348 2.96105C8.25268 2.53345 9.22593 2.31715 10.5538 2.20866C11.8828 2.10008 13.5581 2.1 15.8 2.1H22.2C24.4419 2.1 26.1172 2.10008 27.4462 2.20866C28.7741 2.31715 29.7473 2.53345 30.5865 2.96105C32.073 3.71845 33.2816 4.92699 34.039 6.41348C34.4665 7.25268 34.6828 8.22593 34.7913 9.55376C34.8999 10.8828 34.9 12.5581 34.9 14.8V21.2C34.9 23.4419 34.8999 25.1172 34.7913 26.4462C34.6828 27.7741 34.4665 28.7473 34.039 29.5865C33.2816 31.073 32.073 32.2816 30.5865 33.039C29.7473 33.4665 28.7741 33.6828 27.4462 33.7913C26.1172 33.8999 24.4419 33.9 22.2 33.9H15.8C13.5581 33.9 11.8828 33.8999 10.5538 33.7913C9.22593 33.6828 8.25268 33.4665 7.41348 33.039C5.92699 32.2816 4.71845 31.073 3.96105 29.5865C3.53345 28.7473 3.31715 27.7741 3.20866 26.4462C3.10008 25.1172 3.1 23.4419 3.1 21.2V14.8Z" stroke="#D0D5DD" stroke-width="0.2"/>
</g>
<path d="M13.1543 16.8277L14.0842 10.3185L14.7041 10.0085L15.324 9.38862L16.2539 8.7687L17.4938 8.14877H24.9329C26.4207 8.14877 26.7926 8.56206 26.7926 8.7687V10.0085V12.1783L26.4827 12.7982H19.9735V13.1082L19.6635 13.4181L19.9735 14.0381L21.8332 14.348L25.8627 15.2779L27.1026 16.2078C27.1026 16.4144 27.4126 17.1922 27.4126 18.9974C27.4126 20.8572 27.5159 22.6137 27.1026 23.3369L25.2428 24.8867L20.9034 26.4365L15.324 27.6764L13.4643 26.7465L13.7742 24.2668V19.9273L13.1543 16.8277Z" fill="white"/>
<path d="M10.7874 23.516L10.7813 23.5297L10.7766 23.5439C10.7159 23.7261 10.69 23.9342 10.69 24.1602V26.9164C10.69 27.3319 10.7842 27.7043 11.04 27.96C11.2957 28.2158 11.6681 28.31 12.0836 28.31H19.5277C20.3381 28.31 21.0768 28.2048 21.7402 27.9896C22.4004 27.7912 22.9713 27.4991 23.4465 27.1088L23.4487 27.1069L26.4862 24.5639C26.4865 24.5637 26.4867 24.5635 26.487 24.5632C26.9804 24.1547 27.3554 23.6514 27.61 23.0573C27.8648 22.4627 27.9884 21.7918 27.9884 21.0506V18.5771C27.9884 17.2639 27.6732 16.2331 26.9789 15.5547C26.4599 15.023 25.8091 14.6342 25.0359 14.3826L26.699 12.9967L26.699 12.9967L26.7023 12.9939C26.8524 12.8652 26.9605 12.7043 27.0254 12.5173C27.1062 12.3292 27.1404 12.1157 27.1404 11.8869V9.08363C27.1404 8.6681 27.0462 8.29572 26.7904 8.03995C26.5347 7.78418 26.1623 7.69004 25.7468 7.69004H19.1508C18.3254 7.69004 17.5787 7.79501 16.9146 8.01037C16.2565 8.20819 15.6933 8.49178 15.2329 8.86689L15.2329 8.86687L15.2296 8.86967L12.1672 11.4374L12.1672 11.4374L12.1646 11.4396C11.6876 11.8484 11.3221 12.3509 11.0685 12.9427L11.3497 13.0632L11.0685 12.9427C10.8136 13.5373 10.69 14.2082 10.69 14.9494V17.4229C10.69 18.5915 10.9328 19.54 11.461 20.2267L11.4609 20.2268L11.4665 20.2336C11.8885 20.7509 12.427 21.1448 13.074 21.4186L11.1304 23.0512L11.1304 23.0512L11.1281 23.0532C10.9808 23.1795 10.8676 23.3355 10.7874 23.516ZM20.2248 14.5038L23.7241 14.9735C23.7246 14.9736 23.725 14.9736 23.7254 14.9737C24.7818 15.1248 25.6104 15.4684 26.2309 15.988C26.8067 16.47 27.1329 17.3032 27.1329 18.5771V21.0506C27.1329 22.3105 26.7221 23.2439 25.9272 23.8969C25.1355 24.5445 24.0276 24.8867 22.5665 24.8867H15.1225C14.8775 24.8867 14.7481 24.8376 14.683 24.7882C14.6335 24.7231 14.5844 24.5937 14.5844 24.3486V21.5925C14.5844 21.3236 14.6434 21.2142 14.6821 21.1756C14.742 21.1156 14.8662 21.0544 15.1225 21.0544H21.4594C21.7281 21.0544 21.9836 20.9687 22.1532 20.7442C22.3067 20.5459 22.3818 20.3139 22.3818 20.0612C22.3818 19.7659 22.3235 19.4838 22.1479 19.2771C21.9871 19.0691 21.75 18.9738 21.4934 18.9521L17.9696 18.4588C17.9694 18.4587 17.9692 18.4587 17.969 18.4587C16.9131 18.3078 16.0848 17.9645 15.4642 17.4455C14.9034 16.9639 14.5844 16.1301 14.5844 14.8551V12.3816C14.5844 11.1195 14.9889 10.1952 15.7664 9.5591L15.7664 9.55911L15.7689 9.55696C16.56 8.89537 17.6744 8.54553 19.1508 8.54553H25.7468C26.0071 8.54553 26.1111 8.60847 26.1511 8.65351L26.1632 8.66714L26.1769 8.67925C26.2219 8.7193 26.2849 8.82332 26.2849 9.08363V11.8869C26.2849 12.1432 26.2236 12.2674 26.1636 12.3273C26.125 12.366 26.0156 12.425 25.7468 12.425H20.258C19.9763 12.425 19.7248 12.5265 19.5477 12.7496C19.3821 12.9425 19.3119 13.1829 19.3119 13.4417C19.3119 13.7046 19.3841 13.947 19.5421 14.1502C19.7117 14.3682 19.9513 14.4807 20.2248 14.5038ZM24.7846 10.3557V10.0457H24.4747H19.245C18.4623 10.0457 17.8011 10.2684 17.2931 10.739C16.7843 11.1944 16.5322 11.7905 16.5322 12.4994V14.4311C16.5322 15.0964 16.6583 15.6515 16.9999 15.993L17.0067 15.9999L17.014 16.0063C17.3287 16.2839 17.719 16.4617 18.1718 16.5491L23.1392 17.5614C23.5262 17.6445 23.8081 17.8049 24.0074 18.0292L24.0135 18.0361L24.0199 18.0425C24.1936 18.2161 24.3296 18.6062 24.3296 19.331V20.6973C24.3296 21.2438 24.1424 21.6782 23.7691 22.0249C23.4158 22.3519 22.9249 22.531 22.2603 22.531H16.3946H16.0846V22.841V23.0766V23.3865H16.3946H22.2603C23.1198 23.3865 23.8383 23.1491 24.3799 22.6436L24.38 22.6436L24.3839 22.6398C24.919 22.1225 25.1851 21.4672 25.1851 20.6973V19.331C25.1851 18.4964 25.0289 17.8239 24.6261 17.4186C24.2794 17.0549 23.8362 16.8237 23.3112 16.7186C23.3109 16.7185 23.3107 16.7185 23.3105 16.7184L18.341 15.7057L18.3411 15.7056L18.3323 15.704C18.0224 15.6502 17.7938 15.5333 17.6267 15.3662C17.4961 15.2356 17.3877 14.9567 17.3877 14.4311V12.4994C17.3877 12.0335 17.5499 11.6617 17.8765 11.3612C18.1992 11.0644 18.6439 10.9012 19.245 10.9012H24.4747H24.7846V10.5913V10.3557Z" stroke="white" stroke-width="0.619924"/>
<path d="M12.0836 28C11.7067 28 11.4319 27.9136 11.2591 27.7409C11.0864 27.5681 11 27.2933 11 26.9164V24.1602C11 23.956 11.0236 23.7833 11.0707 23.6419C11.1335 23.5006 11.2199 23.3828 11.3298 23.2886L13.6855 21.3098C12.8532 21.0585 12.1936 20.6345 11.7067 20.0377C11.2356 19.4252 11 18.5536 11 17.4229V14.9494C11 14.2426 11.1178 13.6144 11.3534 13.0648C11.5889 12.5151 11.9266 12.0518 12.3663 11.6749L15.4287 9.10718C15.8528 8.76168 16.3789 8.4947 17.0071 8.30624C17.6353 8.10208 18.3498 8 19.1508 8H25.7468C26.1237 8 26.3985 8.08638 26.5713 8.25913C26.744 8.43188 26.8304 8.70671 26.8304 9.08363V11.8869C26.8304 12.0911 26.799 12.2638 26.7362 12.4052C26.689 12.5465 26.6105 12.6643 26.5006 12.7585L24.3804 14.5253C25.3698 14.7452 26.1629 15.1614 26.7597 15.7739C27.3722 16.3706 27.6784 17.3051 27.6784 18.5771V21.0506C27.6784 21.7574 27.5607 22.3856 27.3251 22.9352C27.0895 23.4849 26.744 23.9482 26.2886 24.3251L23.2497 26.8693C22.81 27.2305 22.276 27.5053 21.6478 27.6938C21.0196 27.8979 20.3129 28 19.5277 28H12.0836ZM22.5665 25.1967C24.0742 25.1967 25.2599 24.8433 26.1237 24.1366C27.0031 23.4142 27.4429 22.3856 27.4429 21.0506V18.5771C27.4429 17.258 27.1052 16.3157 26.4299 15.7503C25.7546 15.1849 24.8673 14.8237 23.768 14.6667L20.258 14.1955C20.0538 14.1798 19.8967 14.1013 19.7868 13.96C19.6769 13.8186 19.6219 13.6459 19.6219 13.4417C19.6219 13.2375 19.6769 13.0726 19.7868 12.947C19.8967 12.8057 20.0538 12.735 20.258 12.735H25.7468C26.0452 12.735 26.2572 12.6722 26.3828 12.5465C26.5241 12.4052 26.5948 12.1853 26.5948 11.8869V9.08363C26.5948 8.78524 26.5241 8.57322 26.3828 8.44759C26.2572 8.30624 26.0452 8.23557 25.7468 8.23557H19.1508C17.6274 8.23557 16.4338 8.59678 15.5701 9.3192C14.7063 10.0259 14.2744 11.0467 14.2744 12.3816V14.8551C14.2744 16.1743 14.6042 17.1166 15.2638 17.682C15.9391 18.2473 16.8265 18.6086 17.9258 18.7656L21.4594 19.2603C21.6635 19.276 21.8127 19.3467 21.9069 19.4723C22.0169 19.598 22.0718 19.7943 22.0718 20.0612C22.0718 20.2497 22.0169 20.4146 21.9069 20.5559C21.8127 20.6816 21.6635 20.7444 21.4594 20.7444H15.1225C14.8241 20.7444 14.6042 20.8151 14.4629 20.9564C14.3373 21.0821 14.2744 21.2941 14.2744 21.5925V24.3486C14.2744 24.647 14.3373 24.8669 14.4629 25.0082C14.6042 25.1339 14.8241 25.1967 15.1225 25.1967H22.5665ZM24.4747 10.3557V10.5913H19.245C18.5854 10.5913 18.0593 10.7719 17.6667 11.1331C17.274 11.4943 17.0777 11.9497 17.0777 12.4994V14.4311C17.0777 14.9808 17.1877 15.3655 17.4075 15.5854C17.6274 15.8053 17.9179 15.9466 18.2792 16.0094L23.2497 17.0224C23.7208 17.1166 24.1056 17.3208 24.404 17.6349C24.7181 17.949 24.8751 18.5143 24.8751 19.331V20.6973C24.8751 21.3883 24.6396 21.9615 24.1684 22.417C23.6973 22.8567 23.0612 23.0766 22.2603 23.0766H16.3946V22.841H22.2603C22.9827 22.841 23.5559 22.6447 23.98 22.2521C24.4197 21.8437 24.6396 21.3255 24.6396 20.6973V19.331C24.6396 18.5929 24.5061 18.0903 24.2391 17.8233C23.9878 17.5406 23.6423 17.3522 23.2026 17.258L18.232 16.245C17.8237 16.1665 17.4861 16.0094 17.2191 15.7739C16.9678 15.5226 16.8422 15.075 16.8422 14.4311V12.4994C16.8422 11.8712 17.062 11.3608 17.5018 10.9682C17.9415 10.5599 18.5226 10.3557 19.245 10.3557H24.4747Z" fill="black"/>
<defs>
<filter id="filter0_dd_27454_20525" x="0" y="0" width="38" height="38" filterUnits="userSpaceOnUse" color-interpolation-filters="sRGB">
<feFlood flood-opacity="0" result="BackgroundImageFix"/>
<feColorMatrix in="SourceAlpha" type="matrix" values="0 0 0 0 0 0 0 0 0 0 0 0 0 0 0 0 0 0 127 0" result="hardAlpha"/>
<feOffset dy="1"/>
<feGaussianBlur stdDeviation="1"/>
<feColorMatrix type="matrix" values="0 0 0 0 0.0627451 0 0 0 0 0.0941176 0 0 0 0 0.156863 0 0 0 0.06 0"/>
<feBlend mode="normal" in2="BackgroundImageFix" result="effect1_dropShadow_27454_20525"/>
<feColorMatrix in="SourceAlpha" type="matrix" values="0 0 0 0 0 0 0 0 0 0 0 0 0 0 0 0 0 0 127 0" result="hardAlpha"/>
<feOffset dy="1"/>
<feGaussianBlur stdDeviation="1.5"/>
<feColorMatrix type="matrix" values="0 0 0 0 0.0627451 0 0 0 0 0.0941176 0 0 0 0 0.156863 0 0 0 0.1 0"/>
<feBlend mode="normal" in2="effect1_dropShadow_27454_20525" result="effect2_dropShadow_27454_20525"/>
<feBlend mode="normal" in="SourceGraphic" in2="effect2_dropShadow_27454_20525" result="shape"/>
</filter>
<linearGradient id="paint0_linear_27454_20525" x1="19" y1="2" x2="19" y2="34" gradientUnits="userSpaceOnUse">
<stop stop-color="white"/>
<stop offset="1" stop-color="#D0D5DD"/>
</linearGradient>
<clipPath id="clip0_27454_20525">
<path d="M3 14.8C3 10.3196 3 8.07937 3.87195 6.36808C4.63893 4.86278 5.86278 3.63893 7.36808 2.87195C9.07937 2 11.3196 2 15.8 2H22.2C26.6804 2 28.9206 2 30.6319 2.87195C32.1372 3.63893 33.3611 4.86278 34.1281 6.36808C35 8.07937 35 10.3196 35 14.8V21.2C35 25.6804 35 27.9206 34.1281 29.6319C33.3611 31.1372 32.1372 32.3611 30.6319 33.1281C28.9206 34 26.6804 34 22.2 34H15.8C11.3196 34 9.07937 34 7.36808 33.1281C5.86278 32.3611 4.63893 31.1372 3.87195 29.6319C3 27.9206 3 25.6804 3 21.2V14.8Z" fill="white"/>
</clipPath>
</defs>
</svg>
