<?xml version="1.0" standalone="no"?>
<!DOCTYPE svg PUBLIC "-//W3C//DTD SVG 20010904//EN"
 "http://www.w3.org/TR/2001/REC-SVG-20010904/DTD/svg10.dtd">
<svg version="1.0" xmlns="http://www.w3.org/2000/svg"
 width="210.000000pt" height="210.000000pt" viewBox="0 0 210.000000 210.000000"
 preserveAspectRatio="xMidYMid meet">
<metadata>
Created by potrace 1.14, written by Peter Selinger 2001-2017
</metadata>
<g transform="translate(0.000000,210.000000) scale(0.100000,-0.100000)"
fill="#000000" stroke="none">
<path d="M948 1895 c-2 -2 -23 -6 -48 -8 -25 -3 -45 -6 -45 -7 0 -1 -7 -3 -15
-5 -99 -20 -266 -100 -340 -162 -169 -144 -282 -331 -316 -525 -10 -54 -11
-228 -2 -290 9 -65 63 -221 95 -276 64 -112 158 -216 259 -289 60 -43 220
-123 246 -123 11 0 27 -4 36 -9 37 -19 134 -24 547 -26 478 -3 489 -1 516 58
8 18 14 42 13 55 -1 12 -2 29 -3 37 0 9 -39 54 -86 101 -47 48 -85 90 -85 94
0 4 7 11 16 14 8 3 12 10 9 16 -3 5 -2 10 4 10 17 0 100 180 122 265 14 53 21
116 22 185 2 127 -5 183 -33 275 -12 39 -21 70 -20 70 1 0 -13 27 -30 60 -48
87 -110 173 -170 233 -52 50 -189 152 -213 156 -7 1 -32 12 -57 23 -50 23 -79
35 -97 39 -6 1 -35 7 -65 14 -50 11 -252 23 -260 15z m242 -243 c25 -6 68 -21
95 -33 237 -104 378 -318 379 -574 0 -138 -15 -205 -71 -307 -14 -25 -22 -52
-18 -58 20 -33 -45 20 -123 100 -82 82 -134 121 -157 115 -5 -2 -22 -6 -37 -9
-15 -4 -43 -20 -62 -36 -122 -108 -317 -68 -386 77 -79 166 37 354 220 356
136 2 257 -117 252 -247 -1 -24 20 -66 46 -89 48 -43 147 -18 172 43 24 58 -3
194 -57 288 -39 68 -125 147 -196 181 -35 17 -73 32 -83 34 -11 1 -23 5 -29 8
-22 13 -163 9 -219 -6 -210 -55 -354 -242 -354 -458 0 -136 51 -256 149 -348
41 -38 133 -94 174 -106 60 -17 122 -23 180 -19 79 6 112 14 174 44 l43 21
115 -115 115 -115 -276 2 c-152 0 -295 6 -318 11 -24 5 -47 11 -53 12 -97 21
-225 100 -299 184 -71 80 -136 207 -150 287 -2 17 -5 30 -6 30 -1 0 -4 38 -5
85 -8 191 64 367 204 498 66 62 215 137 290 147 18 2 35 6 38 8 8 9 208 0 253
-11z"/>
</g>
</svg>
