<?xml version="1.0" standalone="no"?>
<!DOCTYPE svg PUBLIC "-//W3C//DTD SVG 20010904//EN"
 "http://www.w3.org/TR/2001/REC-SVG-20010904/DTD/svg10.dtd">
<svg version="1.0" xmlns="http://www.w3.org/2000/svg"
 width="700.000000pt" height="700.000000pt" viewBox="0 0 700.000000 700.000000"
 preserveAspectRatio="xMidYMid meet">
<metadata>
Created by potrace 1.14, written by Peter Selinger 2001-2017
</metadata>
<g transform="translate(0.000000,700.000000) scale(0.100000,-0.100000)"
fill="#000000" stroke="none">
<path d="M3029 6633 c-8 -1 -243 -4 -524 -7 -280 -2 -521 -6 -535 -9 -14 -3
-61 -8 -105 -12 -242 -20 -468 -95 -644 -213 -36 -25 -72 -45 -79 -45 -6 0
-10 -2 -8 -5 3 -2 -26 -30 -62 -62 -194 -167 -342 -375 -414 -579 -31 -89 -62
-228 -72 -326 -4 -33 -9 -78 -11 -100 -11 -102 -17 -202 -20 -340 -5 -206 -5
-2323 0 -2465 5 -163 16 -358 21 -405 2 -22 5 -59 7 -82 1 -24 6 -43 10 -43 5
0 6 -4 3 -8 -6 -10 47 -230 69 -284 8 -21 11 -38 7 -38 -4 0 -2 -4 3 -8 16
-12 36 -52 30 -61 -3 -5 1 -11 8 -14 6 -2 23 -28 37 -56 14 -28 28 -51 33 -51
4 0 7 -5 7 -11 0 -6 20 -37 45 -68 24 -32 42 -61 40 -65 -3 -3 -2 -4 1 -2 3 2
26 -19 52 -47 66 -71 152 -155 152 -148 0 3 4 1 8 -4 26 -36 296 -205 327
-205 8 0 15 -4 15 -10 0 -5 3 -9 8 -8 4 1 25 -4 47 -11 42 -13 55 -17 67 -20
4 -1 22 -7 40 -12 88 -25 339 -58 478 -63 36 -1 71 -5 78 -9 7 -5 12 -3 12 3
0 6 4 9 9 6 4 -3 95 -6 202 -7 153 -2 199 -5 219 -17 20 -13 23 -13 13 -1 -10
12 125 14 990 14 930 1 1325 7 1487 22 36 4 84 7 107 7 24 1 43 5 43 10 0 4
15 6 34 4 19 -2 33 -1 30 3 -3 6 64 19 118 22 14 1 24 4 22 7 -5 4 20 12 96
31 8 2 21 10 28 17 7 6 19 12 26 12 7 0 35 12 62 26 195 102 375 255 504 425
35 46 67 83 72 81 5 -1 7 2 3 8 -4 6 3 25 13 43 89 145 142 302 171 507 38
270 40 364 40 1715 0 884 -4 1450 -10 1450 -2 0 -7 52 -12 140 -3 50 -8 97
-11 105 -2 8 -7 38 -10 65 -6 53 -49 235 -64 270 -5 11 -21 46 -36 78 -14 32
-23 63 -20 69 4 7 2 8 -4 4 -7 -4 -12 -3 -12 2 0 13 -130 208 -165 247 -190
216 -408 366 -633 435 -101 31 -231 56 -347 65 -38 4 -83 8 -100 11 -77 11
-1924 27 -1996 17z"/>
<path d="M516 2238 c3 -5 10 -6 15 -3 13 9 11 12 -6 12 -8 0 -12 -4 -9 -9z"/>
<path d="M6239 1313 c-13 -16 -12 -17 4 -4 9 7 17 15 17 17 0 8 -8 3 -21 -13z"/>
<path d="M5385 760 c-3 -6 1 -7 9 -4 18 7 21 14 7 14 -6 0 -13 -4 -16 -10z"/>
<path d="M2076 713 c-6 -14 -5 -15 5 -6 7 7 10 15 7 18 -3 3 -9 -2 -12 -12z"/>
<path d="M4835 680 c-3 -5 -1 -10 4 -10 6 0 11 5 11 10 0 6 -2 10 -4 10 -3 0
-8 -4 -11 -10z"/>
<path d="M4639 653 c-13 -16 -12 -17 4 -4 16 13 21 21 13 21 -2 0 -10 -8 -17
-17z"/>
<path d="M3754 646 c1 -8 5 -18 8 -22 4 -3 5 1 4 10 -1 8 -5 18 -8 22 -4 3 -5
-1 -4 -10z"/>
<path d="M5110 599 c0 -5 5 -7 10 -4 6 3 10 8 10 11 0 2 -4 4 -10 4 -5 0 -10
-5 -10 -11z"/>
</g>
</svg>
